<!DOCTYPE svg PUBLIC "-//W3C//DTD SVG 1.1//EN" "http://www.w3.org/Graphics/SVG/1.1/DTD/svg11.dtd">
<!-- Uploaded to: SVG Repo, www.svgrepo.com, Transformed by: SVG Repo Mixer Tools -->
<svg fill="#ffffff" version="1.1" id="Capa_1" xmlns="http://www.w3.org/2000/svg" xmlns:xlink="http://www.w3.org/1999/xlink" width="147px" height="147px" viewBox="-5.22 -5.22 41.17 41.17" xml:space="preserve" stroke="#ffffff" stroke-width="0.00030727">
<g id="SVGRepo_bgCarrier" stroke-width="0"/>
<g id="SVGRepo_tracerCarrier" stroke-linecap="round" stroke-linejoin="round" stroke="#0f0f0f" stroke-width="2.5810679999999997"> <g> <path d="M29.994,10.183L15.363,24.812L0.733,10.184c-0.977-0.978-0.977-2.561,0-3.536c0.977-0.977,2.559-0.976,3.536,0 l11.095,11.093L26.461,6.647c0.977-0.976,2.559-0.976,3.535,0C30.971,7.624,30.971,9.206,29.994,10.183z"/> </g> </g>
<g id="SVGRepo_iconCarrier"> <g> <path d="M29.994,10.183L15.363,24.812L0.733,10.184c-0.977-0.978-0.977-2.561,0-3.536c0.977-0.977,2.559-0.976,3.536,0 l11.095,11.093L26.461,6.647c0.977-0.976,2.559-0.976,3.535,0C30.971,7.624,30.971,9.206,29.994,10.183z"/> </g> </g>
</svg>